<svg width="9" height="9" viewBox="0 0 9 9" fill="none" xmlns="http://www.w3.org/2000/svg">
<path d="M4.12207 0.0664109C4.36641 -0.022137 4.63359 -0.022137 4.87969 0.0664109L8.25469 1.28129C8.70117 1.44244 9 1.86924 9 2.34917V6.65083C9 7.12898 8.70117 7.55756 8.25293 7.71871L4.87793 8.93359C4.63359 9.02214 4.36641 9.02214 4.12031 8.93359L0.745313 7.71871C0.298828 7.55579 0 7.12898 0 6.64906V2.34917C0 1.87102 0.298828 1.44244 0.74707 1.28129L4.12207 0.0664109ZM4.5 1.1343L1.44668 2.23229L4.5 3.33028L7.55332 2.23229L4.5 1.1343ZM5.0625 7.66204L7.875 6.65083V3.32143L5.0625 4.33265V7.66204Z" fill="#7981A5"/>
</svg>
