<svg width="6" height="6" viewBox="0 0 6 6" fill="none" xmlns="http://www.w3.org/2000/svg">
<path d="M3.4 0.387097C3.4 0.172984 3.22125 0 3 0C2.77875 0 2.6 0.172984 2.6 0.387097V3.09677C2.6 3.31089 2.77875 3.48387 3 3.48387C3.22125 3.48387 3.4 3.31089 3.4 3.09677V0.387097ZM1.59375 1.45887C1.76375 1.32218 1.78625 1.07782 1.645 0.913306C1.50375 0.74879 1.25125 0.727016 1.08125 0.86371C0.42125 1.39597 0 2.19919 0 3.09677C0 4.6996 1.34375 6 3 6C4.65625 6 6 4.6996 6 3.09677C6 2.19919 5.5775 1.39597 4.9175 0.86371C4.7475 0.727016 4.495 0.75 4.35375 0.913306C4.2125 1.07661 4.23625 1.32218 4.405 1.45887C4.89125 1.8496 5.19875 2.43871 5.19875 3.09677C5.19875 4.27258 4.21375 5.22581 2.99875 5.22581C1.78375 5.22581 0.79875 4.27258 0.79875 3.09677C0.79875 2.43871 1.1075 1.8496 1.5925 1.45887H1.59375Z" fill="#06A457"/>
</svg>
